<svg width="197" height="26" viewBox="0 0 197 26" fill="none" xmlns="http://www.w3.org/2000/svg">
<path fill-rule="evenodd" clip-rule="evenodd" d="M45.0796 3.81651V4.73088H38.4468V25.4037H36.1034V4.73088H29.4308V3.81651H45.0796V3.81651ZM60.0135 0V0.834859H48.2968V0H60.0135ZM60.0135 3.81651V4.73088H50.6401V13.2783H59.2589V14.1529H50.6401V24.4893H60.1327V25.4832H48.2968V3.85627L60.0135 3.81651V3.81651ZM76.1389 3.81651V4.73088H66.7655V13.2783H75.3843V14.1529H66.7655V24.4893H76.2581V25.4832H64.4222V3.85627L76.1389 3.81651ZM11.677 3.81651V4.73088H2.30363V13.2783H10.9224V14.1529H2.30363V24.4893H11.7962V25.4832H0V3.85627L11.677 3.81651V3.81651ZM177.062 3.81651V4.73088H167.688V13.2783H176.347V14.1529H167.728V24.4893H177.221V25.4832H165.385V3.85627L177.062 3.81651ZM91.1522 3.81651V24.4495C91.1522 24.4495 100.168 24.4098 100.565 24.4098V25.4434H88.8486V3.81651H91.1522ZM26.5712 20.1162C26.6109 17.2141 24.0292 16.2997 21.2887 15.3456C18.1907 14.2722 15.0133 13.1193 15.0133 9.06422C15.053 5.32722 18.5482 3.33945 21.805 3.3792C23.7115 3.41896 25.5782 3.89602 27.2861 4.81039V6.24159C25.8165 4.92966 23.9101 4.21407 21.9242 4.17431C19.144 4.13456 16.9992 5.92354 16.9992 8.30887C16.9595 11.1713 19.6206 12.1254 22.4008 13.1193C25.4988 14.2324 28.6762 15.3456 28.6365 19.2018C28.5968 23.7339 24.5853 26.0398 20.6532 26C18.6276 26 16.6417 25.4832 14.8942 24.4893V23.0184C16.5623 24.2905 18.5482 25.0061 20.6135 25.0856C24.4264 25.1254 26.5315 22.581 26.5712 20.1162V20.1162ZM112.481 3.61773L115.857 12.0459C115.857 12.0459 120.424 23.4954 121.179 25.4037H118.518C118.399 25.1254 115.301 17.0153 115.301 17.0153H106.642C106.642 17.0153 103.584 25.1254 103.465 25.4037H102.075L110.614 3.57798H112.481V3.61773V3.61773ZM110.813 6.08257C109.383 10.0183 107.516 14.8685 107.158 15.8624L107.039 16.1804H115.023L113.91 13.1988L111.051 5.56575L110.813 6.08257V6.08257ZM139.25 3.81651V18.4862C139.25 23.0979 136.232 25.8807 131.227 25.8807C125.945 25.8807 123.165 23.2569 123.165 18.3272V3.77676H125.468V18.8838C125.468 22.7798 127.732 25.0856 131.545 25.0856C135.557 25.0856 138.059 22.5413 138.059 18.4465V3.77676L139.25 3.81651ZM188.778 3.81651C191.241 3.77675 193.227 4.41285 194.418 5.68502C195.292 6.63914 195.769 7.95107 195.729 9.263C195.729 13.4771 190.844 14.5505 190.605 14.5902L190.327 14.6697C190.327 14.6697 196.643 24.8471 197 25.4832H194.458L188.143 14.948H183.853V25.4832H181.51V3.85627L188.778 3.81651V3.81651ZM188.54 4.65137H183.814V14.1131H187.229C189.493 14.1529 191.241 13.5566 192.313 12.4434C193.108 11.5688 193.505 10.4159 193.465 9.263C193.545 8.07034 193.108 6.87768 192.313 5.9633C191.797 5.48624 191.201 5.12844 190.566 4.88991C189.93 4.69113 189.215 4.61162 188.54 4.65137V4.65137ZM151.483 3.81651C154.661 3.77675 157.243 4.69113 158.99 6.51988C160.698 8.30887 161.611 11.052 161.611 14.3517C161.611 17.7706 160.698 20.4342 158.911 22.3425C156.965 24.4098 154.025 25.4832 150.411 25.4037H143.739V3.77676L151.483 3.81651ZM151.086 4.65137H146.082V24.5688H149.934C153.072 24.6086 155.376 23.8135 156.925 22.1835C158.474 20.5535 159.228 18.0489 159.228 14.7095C159.228 11.1713 158.394 8.50764 156.766 6.79816C156.011 6.04281 155.138 5.48624 154.145 5.08869C153.191 4.77064 152.159 4.61162 151.086 4.65137V4.65137Z" fill="white"/>
</svg>
